<?xml version="1.0" encoding="UTF-8"?>
<svg width="80px" height="15px" viewBox="0 0 80 15" version="1.1" xmlns="http://www.w3.org/2000/svg" xmlns:xlink="http://www.w3.org/1999/xlink">
    <!-- Generator: Sketch 61.2 (89653) - https://sketch.com -->
    <title>Trend_White Copy</title>
    <desc>Created with Sketch.</desc>
    <g id="Page-1" stroke="none" stroke-width="1" fill="none" fill-rule="evenodd">
        <g id="HomePage" transform="translate(-43.000000, -29.000000)" fill-rule="nonzero">
            <g id="Trend_White-Copy" transform="translate(83.000000, 36.500000) rotate(-360.000000) translate(-83.000000, -36.500000) translate(43.000000, 29.000000)">
                <g id="Asset-11">
                    <polygon id="Shape" fill="#FFFFFF" points="9.15314548 0.425076264 9.15314548 2.12538132 5.44527404 2.12538132 5.44527404 14.2613087 3.60193225 14.2613087 3.60193225 2.12538132 0 2.12538132 0 0.425076264"></polygon>
                    <path d="M22.6709853,14.2613087 L19.4292463,9.13913969 L16.9502694,9.13913969 L16.9502694,14.2400549 L15.0857398,14.2400549 L15.0857398,0.42504009 L18.7512355,0.42504009 C19.5879213,0.422220544 20.4166063,0.588473626 21.1878368,0.913913969 C21.8939921,1.2274269 22.4966035,1.73608137 22.9252394,2.38042708 C23.3617002,3.07222236 23.582976,3.87869461 23.5608745,4.69709272 C23.5728499,5.51943909 23.3759801,6.33131314 22.9888029,7.05626599 C22.6129781,7.77721776 22.0093981,8.35277805 21.2725881,8.69280961 L24.7473933,14.2613087 L22.6709853,14.2613087 Z M21.1878368,6.5886821 C21.6204435,6.08779393 21.8542324,5.44476375 21.8446597,4.78210798 C21.8449957,4.3626277 21.7508372,3.94849307 21.5692178,3.57064062 C21.3678972,3.16883506 21.059971,2.83053236 20.6793287,2.59296521 C20.2058977,2.26908226 19.6417526,2.10526861 19.0690531,2.12538132 L16.9502694,2.12538132 L16.9502694,7.35381938 L18.9631139,7.35381938 C19.7820907,7.45136176 20.6008151,7.16978215 21.1878368,6.5886821 Z" id="Shape" fill="#FFFFFF"></path>
                    <polygon id="Shape" fill="#FFFFFF" points="62.6948089 0.425076264 62.6948089 14.7076388 62.6948089 14.7076388 52.5034595 4.39953934 52.5034595 14.2613087 50.6389298 14.2613087 50.6389298 0 50.6389298 0 60.745528 10.4356223 60.745528 0.425076264"></polygon>
                    <path d="M68.6274032,0.425076264 L72.3988382,0.425076264 C73.8776685,0.371201131 75.3430338,0.723983918 76.6364055,1.4452593 C77.6970345,2.06114358 78.5522151,2.97814876 79.0941946,4.08073214 C79.6171339,5.14471432 79.8855565,6.31635238 79.8781446,7.50259607 C79.8975444,8.74907154 79.575044,9.97691867 78.9458797,11.0519829 C78.3380989,12.0487411 77.4746461,12.8635013 76.445715,13.4111561 C75.4026941,13.9701577 74.2382167,14.2621836 73.0556611,14.2613106 L68.6062154,14.2613106 L68.6274032,0.425076264 Z M72.7166557,12.4547345 C73.6537875,12.4635369 74.5808216,12.2601168 75.4286988,11.8596278 C76.2170688,11.4711974 76.8731973,10.857397 77.3144163,10.0955613 C77.7809367,9.25897624 78.0150845,8.31212871 77.9924271,7.35381938 C78.0163184,6.37919938 77.7745648,5.41652245 77.2932285,4.56956984 C76.8347713,3.82170402 76.1831895,3.21215693 75.407511,2.80550335 C74.634481,2.37704099 73.7691571,2.14362426 72.8861584,2.12538132 L70.470745,2.12538132 L70.470745,12.4547345 L72.7166557,12.4547345 Z" id="Shape" fill="#FFFFFF"></path>
                    <g id="Stripes" transform="translate(29.779920, 0.300590)">
                        <polygon id="Rectangle-path" fill="#FFCB6F" transform="translate(5.165905, 6.828217) rotate(180.000000) translate(-5.165905, -6.828217) " points="2.29412247e-15 5.77615314 10.3318091 5.77615314 10.3318091 7.88028065 2.29412247e-15 7.88028065"></polygon>
                        <polygon id="Rectangle-path" fill="#FFB917" transform="translate(7.293042, 1.052064) rotate(180.000000) translate(-7.293042, -1.052064) " points="0 0 14.5860834 0 14.5860834 2.10412751 0 2.10412751"></polygon>
                        <polygon id="Rectangle-path" fill="#FEDEA7" transform="translate(3.646521, 12.604370) rotate(180.000000) translate(-3.646521, -12.604370) " points="0 11.5523063 7.2930417 11.5523063 7.2930417 13.6564338 0 13.6564338"></polygon>
                    </g>
                </g>
            </g>
        </g>
    </g>
</svg>